<svg width="56" height="11" viewBox="0 0 56 11" fill="none" xmlns="http://www.w3.org/2000/svg">
<path d="M2.926 1.81V4.26H6.216V5.814H2.926V8.404H6.636V10H0.966V0.213999H6.636V1.81H2.926ZM11.8612 10.126C11.1145 10.126 10.4425 9.96267 9.84517 9.636C9.24784 9.3 8.77651 8.82867 8.43117 8.222C8.09517 7.61533 7.92717 6.91533 7.92717 6.122C7.92717 5.32867 8.09984 4.62867 8.44517 4.022C8.79984 3.41533 9.28051 2.94867 9.88717 2.622C10.4938 2.286 11.1705 2.118 11.9172 2.118C12.6638 2.118 13.3405 2.286 13.9472 2.622C14.5538 2.94867 15.0298 3.41533 15.3752 4.022C15.7298 4.62867 15.9072 5.32867 15.9072 6.122C15.9072 6.91533 15.7252 7.61533 15.3612 8.222C15.0065 8.82867 14.5212 9.3 13.9052 9.636C13.2985 9.96267 12.6172 10.126 11.8612 10.126ZM11.8612 8.418C12.2158 8.418 12.5472 8.334 12.8552 8.166C13.1725 7.98867 13.4245 7.72733 13.6112 7.382C13.7978 7.03667 13.8912 6.61667 13.8912 6.122C13.8912 5.38467 13.6952 4.82 13.3032 4.428C12.9205 4.02667 12.4492 3.826 11.8892 3.826C11.3292 3.826 10.8578 4.02667 10.4752 4.428C10.1018 4.82 9.91517 5.38467 9.91517 6.122C9.91517 6.85933 10.0972 7.42867 10.4612 7.83C10.8345 8.222 11.3012 8.418 11.8612 8.418ZM20.3129 10.126C19.6782 10.126 19.1089 10.014 18.6049 9.79C18.1009 9.55667 17.6996 9.244 17.4009 8.852C17.1116 8.46 16.9529 8.026 16.9249 7.55H18.8989C18.9362 7.84867 19.0809 8.096 19.3329 8.292C19.5942 8.488 19.9162 8.586 20.2989 8.586C20.6722 8.586 20.9616 8.51133 21.1669 8.362C21.3816 8.21267 21.4889 8.02133 21.4889 7.788C21.4889 7.536 21.3582 7.34933 21.0969 7.228C20.8449 7.09733 20.4389 6.95733 19.8789 6.808C19.3002 6.668 18.8242 6.52333 18.4509 6.374C18.0869 6.22467 17.7696 5.996 17.4989 5.688C17.2376 5.38 17.1069 4.96467 17.1069 4.442C17.1069 4.01267 17.2282 3.62067 17.4709 3.266C17.7229 2.91133 18.0776 2.63133 18.5349 2.426C19.0016 2.22067 19.5476 2.118 20.1729 2.118C21.0969 2.118 21.8342 2.35133 22.3849 2.818C22.9356 3.27533 23.2389 3.896 23.2949 4.68H21.4189C21.3909 4.372 21.2602 4.12933 21.0269 3.952C20.8029 3.76533 20.4996 3.672 20.1169 3.672C19.7622 3.672 19.4869 3.73733 19.2909 3.868C19.1042 3.99867 19.0109 4.18067 19.0109 4.414C19.0109 4.67533 19.1416 4.876 19.4029 5.016C19.6642 5.14667 20.0702 5.282 20.6209 5.422C21.1809 5.562 21.6429 5.70667 22.0069 5.856C22.3709 6.00533 22.6836 6.23867 22.9449 6.556C23.2156 6.864 23.3556 7.27467 23.3649 7.788C23.3649 8.236 23.2389 8.63733 22.9869 8.992C22.7442 9.34667 22.3896 9.62667 21.9229 9.832C21.4656 10.028 20.9289 10.126 20.3129 10.126ZM34.6058 2.132C35.5578 2.132 36.3231 2.426 36.9018 3.014C37.4898 3.59267 37.7838 4.40467 37.7838 5.45V10H35.8238V5.716C35.8238 5.10933 35.6698 4.64733 35.3618 4.33C35.0538 4.00333 34.6338 3.84 34.1018 3.84C33.5698 3.84 33.1451 4.00333 32.8278 4.33C32.5198 4.64733 32.3658 5.10933 32.3658 5.716V10H30.4058V5.716C30.4058 5.10933 30.2518 4.64733 29.9438 4.33C29.6358 4.00333 29.2158 3.84 28.6838 3.84C28.1425 3.84 27.7131 4.00333 27.3958 4.33C27.0878 4.64733 26.9338 5.10933 26.9338 5.716V10H24.9738V2.244H26.9338V3.182C27.1858 2.85533 27.5078 2.59867 27.8998 2.412C28.3011 2.22533 28.7398 2.132 29.2158 2.132C29.8225 2.132 30.3638 2.26267 30.8398 2.524C31.3158 2.776 31.6845 3.14 31.9458 3.616C32.1978 3.168 32.5618 2.80867 33.0378 2.538C33.5231 2.26733 34.0458 2.132 34.6058 2.132ZM39.1397 6.094C39.1397 5.31 39.2937 4.61467 39.6017 4.008C39.9191 3.40133 40.3437 2.93467 40.8757 2.608C41.4171 2.28133 42.0191 2.118 42.6817 2.118C43.2604 2.118 43.7644 2.23467 44.1937 2.468C44.6324 2.70133 44.9824 2.99533 45.2437 3.35V2.244H47.2177V10H45.2437V8.866C44.9917 9.23 44.6417 9.53333 44.1937 9.776C43.7551 10.0093 43.2464 10.126 42.6677 10.126C42.0144 10.126 41.4171 9.958 40.8757 9.622C40.3437 9.286 39.9191 8.81467 39.6017 8.208C39.2937 7.592 39.1397 6.88733 39.1397 6.094ZM45.2437 6.122C45.2437 5.646 45.1504 5.24 44.9637 4.904C44.7771 4.55867 44.5251 4.29733 44.2077 4.12C43.8904 3.93333 43.5497 3.84 43.1857 3.84C42.8217 3.84 42.4857 3.92867 42.1777 4.106C41.8697 4.28333 41.6177 4.54467 41.4217 4.89C41.2351 5.226 41.1417 5.62733 41.1417 6.094C41.1417 6.56067 41.2351 6.97133 41.4217 7.326C41.6177 7.67133 41.8697 7.93733 42.1777 8.124C42.4951 8.31067 42.8311 8.404 43.1857 8.404C43.5497 8.404 43.8904 8.31533 44.2077 8.138C44.5251 7.95133 44.7771 7.69 44.9637 7.354C45.1504 7.00867 45.2437 6.598 45.2437 6.122ZM52.1 10.126C51.4653 10.126 50.896 10.014 50.392 9.79C49.888 9.55667 49.4867 9.244 49.188 8.852C48.8987 8.46 48.74 8.026 48.712 7.55H50.686C50.7233 7.84867 50.868 8.096 51.12 8.292C51.3813 8.488 51.7033 8.586 52.086 8.586C52.4593 8.586 52.7487 8.51133 52.954 8.362C53.1687 8.21267 53.276 8.02133 53.276 7.788C53.276 7.536 53.1453 7.34933 52.884 7.228C52.632 7.09733 52.226 6.95733 51.666 6.808C51.0873 6.668 50.6113 6.52333 50.238 6.374C49.874 6.22467 49.5567 5.996 49.286 5.688C49.0247 5.38 48.894 4.96467 48.894 4.442C48.894 4.01267 49.0153 3.62067 49.258 3.266C49.51 2.91133 49.8647 2.63133 50.322 2.426C50.7887 2.22067 51.3347 2.118 51.96 2.118C52.884 2.118 53.6213 2.35133 54.172 2.818C54.7227 3.27533 55.026 3.896 55.082 4.68H53.206C53.178 4.372 53.0473 4.12933 52.814 3.952C52.59 3.76533 52.2867 3.672 51.904 3.672C51.5493 3.672 51.274 3.73733 51.078 3.868C50.8913 3.99867 50.798 4.18067 50.798 4.414C50.798 4.67533 50.9287 4.876 51.19 5.016C51.4513 5.14667 51.8573 5.282 52.408 5.422C52.968 5.562 53.43 5.70667 53.794 5.856C54.158 6.00533 54.4707 6.23867 54.732 6.556C55.0027 6.864 55.1427 7.27467 55.152 7.788C55.152 8.236 55.026 8.63733 54.774 8.992C54.5313 9.34667 54.1767 9.62667 53.71 9.832C53.2527 10.028 52.716 10.126 52.1 10.126Z" fill="white"/>
</svg>